<?xml version="1.0" standalone="no"?>
<!DOCTYPE svg PUBLIC "-//W3C//DTD SVG 20010904//EN"
 "http://www.w3.org/TR/2001/REC-SVG-20010904/DTD/svg10.dtd">
<svg version="1.0" xmlns="http://www.w3.org/2000/svg"
 width="225.000000pt" height="225.000000pt" viewBox="0 0 225.000000 225.000000"
 preserveAspectRatio="xMidYMid meet">
<metadata>
Created by potrace 1.14, written by Peter Selinger 2001-2017
</metadata>
<g transform="translate(0.000000,225.000000) scale(0.100000,-0.100000)"
fill="#000000" stroke="none">
<path d="M970 2232 c0 -18 44 -76 100 -132 3 -3 12 -14 20 -24 14 -18 13 -19
-35 -13 -43 5 -46 5 -20 -4 17 -6 35 -11 42 -11 7 -1 10 -5 8 -9 -8 -11 23
-31 36 -23 7 4 9 3 5 -4 -3 -6 -1 -22 5 -36 10 -20 9 -30 -5 -50 -27 -42 -71
-59 -143 -54 l-64 4 5 -30 c4 -26 18 -41 43 -49 15 -5 91 -92 83 -95 -6 -2
-23 3 -40 11 -36 18 -38 12 -7 -21 21 -24 22 -24 1 -14 -26 14 -36 36 -27 59
5 12 3 14 -7 8 -8 -5 -11 -4 -6 3 8 13 -33 43 -48 35 -6 -3 -8 -3 -4 2 8 9
-40 50 -49 42 -9 -10 8 -28 19 -21 7 4 8 2 4 -4 -8 -14 46 -101 98 -157 21
-22 34 -33 30 -25 -11 24 8 3 21 -22 8 -16 19 -22 37 -20 14 1 36 -2 49 -6 23
-9 22 -10 -21 -32 -25 -13 -63 -29 -85 -36 -32 -10 -35 -13 -15 -13 14 -1 50
9 80 20 30 12 63 22 72 22 9 1 14 5 12 9 -10 16 20 7 63 -18 50 -29 52 -45 4
-19 -17 8 -31 14 -31 12 0 -11 80 -58 89 -53 5 3 11 1 13 -5 2 -5 34 -18 71
-28 37 -9 65 -19 63 -22 -14 -14 73 6 96 22 34 25 46 24 23 -1 -24 -27 -73
-50 -90 -44 -7 3 -16 0 -21 -7 -5 -8 -3 -10 6 -4 8 5 11 4 7 -2 -4 -6 -34 -16
-67 -22 -33 -7 -60 -13 -60 -15 0 -10 163 4 200 17 24 9 46 15 47 13 2 -1 -22
-15 -53 -31 -57 -29 -174 -49 -160 -27 4 6 -2 8 -16 4 -18 -4 -12 -9 31 -23
29 -9 58 -22 64 -29 17 -17 -127 -8 -168 11 l-29 14 39 5 c22 3 -5 6 -60 6
-86 0 -109 3 -165 26 -52 22 -60 23 -40 8 14 -11 31 -20 38 -20 6 0 12 -4 12
-9 0 -5 12 -14 28 -20 15 -6 45 -27 67 -46 l40 -34 -60 5 c-43 4 -56 2 -45 -5
8 -6 11 -11 6 -11 -4 0 -29 14 -55 31 -40 27 -43 28 -23 6 l23 -24 -31 -7
c-32 -6 -90 -55 -90 -76 0 -6 17 1 37 15 21 14 41 25 45 25 5 0 8 -16 8 -35 0
-25 9 -44 31 -67 25 -27 28 -28 14 -7 -14 24 -14 27 0 39 12 10 19 10 27 2 18
-18 36 -14 43 8 8 26 23 25 35 -2 l9 -23 7 23 c7 23 37 36 72 30 19 -3 20 -4
3 -70 -9 -37 -14 -65 -9 -62 4 3 10 21 14 41 13 67 25 8 22 -101 -2 -66 1
-102 7 -99 36 16 95 137 94 193 0 14 -7 -1 -15 -32 -7 -32 -26 -77 -41 -100
l-28 -43 -6 135 c-4 74 -7 140 -8 147 0 6 -9 12 -18 12 -66 2 -100 7 -96 14 2
4 -4 7 -14 7 -10 0 -25 5 -33 10 -10 6 -4 9 22 7 20 -1 34 -5 31 -9 -2 -5 0
-8 6 -8 5 0 14 8 19 17 7 12 5 21 -11 33 -11 9 -18 22 -16 29 3 7 43 -14 107
-55 92 -61 102 -71 103 -98 1 -30 1 -30 9 -6 6 19 8 12 9 -30 0 -30 -6 -73
-14 -94 -13 -36 -13 -38 3 -22 19 18 18 17 20 101 l2 60 27 -27 c26 -26 26
-27 9 -53 -10 -15 -16 -29 -13 -31 8 -8 47 80 48 107 0 13 4 32 8 42 6 17 11
14 44 -22 21 -23 37 -52 37 -65 0 -30 -50 -99 -88 -122 -19 -11 -28 -23 -25
-33 4 -12 3 -13 -4 -3 -5 7 -17 10 -26 6 -10 -3 -17 -1 -17 5 0 21 -30 11 -41
-13 -14 -29 9 -105 47 -161 l24 -36 -44 -87 c-24 -48 -48 -103 -55 -123 -8
-26 -31 -52 -82 -92 -38 -30 -66 -58 -60 -61 5 -3 18 -22 30 -41 l20 -35 -44
-48 -45 -47 0 103 c0 105 13 158 32 131 6 -9 7 7 3 50 -6 66 -28 130 -57 170
l-17 23 -30 -21 c-17 -12 -50 -26 -73 -31 l-43 -9 42 3 c24 2 55 13 70 24 l27
20 23 -30 22 -30 -27 -42 c-15 -22 -39 -58 -54 -80 -15 -21 -25 -42 -23 -47 3
-4 0 -11 -6 -15 -8 -4 -9 -3 -5 4 11 19 -2 14 -37 -12 -18 -12 -68 -43 -112
-66 l-80 -44 39 50 c58 72 64 85 17 34 -42 -46 -95 -115 -71 -93 9 8 19 9 31
3 9 -5 49 -13 88 -16 l71 -7 -52 -32 c-42 -25 -54 -37 -56 -61 -2 -16 -10 -34
-19 -41 -9 -7 -12 -19 -9 -31 4 -11 2 -31 -4 -46 -10 -27 -10 -27 34 -25 32 2
43 6 39 16 -3 7 -9 10 -14 7 -5 -3 -6 2 -3 11 4 10 2 15 -6 13 -6 -2 -19 7
-27 19 -10 15 -11 23 -4 23 6 0 16 -10 20 -22 l9 -23 9 23 c8 20 10 18 22 -23
l13 -45 174 0 c96 0 174 3 174 8 0 4 -4 23 -10 41 -11 40 -7 49 15 31 30 -25
28 1 -2 33 -17 17 -34 47 -38 66 l-7 34 59 -52 60 -53 -13 -36 c-17 -49 -17
-72 0 -72 9 0 12 7 9 19 -3 11 2 44 11 75 14 46 26 64 77 108 67 59 89 92 89
138 0 25 -4 30 -24 30 -30 0 -66 -53 -73 -110 -3 -22 -9 -37 -14 -34 -15 9 -9
77 10 120 15 33 27 44 58 54 21 7 48 19 61 26 20 13 23 13 28 -1 4 -9 3 -37
-1 -63 -15 -102 -16 -100 23 -91 l34 7 -24 -26 c-12 -15 -23 -28 -23 -29 0 -1
-14 -5 -30 -9 l-30 -7 20 24 c15 18 12 17 -12 -5 -17 -15 -30 -33 -27 -40 2
-6 -14 -21 -36 -34 -24 -13 -38 -28 -34 -34 4 -7 3 -8 -4 -4 -15 9 -64 -77
-56 -98 5 -14 25 -16 140 -16 l134 0 0 24 c0 47 9 57 46 50 39 -7 43 3 13 37
-19 23 -20 23 -14 2 5 -18 2 -20 -15 -16 -11 3 -20 14 -20 25 0 10 -4 17 -8
14 -4 -2 -14 -1 -22 5 -12 7 -11 9 5 9 11 0 16 4 10 8 -14 10 -17 32 -5 32 5
0 7 7 4 15 -4 8 1 17 10 21 9 3 16 11 16 18 0 18 56 62 71 57 12 -4 12 -2 0
13 -15 18 -9 32 8 21 15 -9 14 -35 -3 -67 -14 -26 -13 -27 20 -38 19 -7 32
-15 30 -18 -2 -4 7 -8 20 -8 13 -1 46 -16 74 -33 57 -35 60 -36 60 -17 0 7
-25 35 -54 62 -30 27 -53 51 -50 53 15 15 44 6 89 -28 41 -31 56 -37 86 -33
32 3 40 -1 68 -34 17 -21 31 -48 31 -60 0 -21 28 -54 46 -54 5 0 22 -11 37
-25 l27 -26 0 29 c0 16 -8 40 -19 53 -10 13 -30 47 -45 74 -15 28 -69 120
-121 205 -55 91 -90 157 -84 161 6 3 2 8 -9 11 -27 8 -222 260 -222 288 0 6
-4 10 -9 10 -5 0 -12 -20 -15 -45 -4 -25 -13 -45 -19 -45 -7 0 -6 -4 3 -10 8
-5 11 -12 7 -16 -8 -8 -39 15 -32 26 5 8 -31 27 -60 32 -19 3 -50 65 -69 138
l-7 25 23 -26 c13 -15 40 -41 62 -60 l39 -33 -20 39 c-24 48 -47 115 -41 121
3 2 19 -3 36 -11 17 -9 55 -18 84 -20 29 -3 46 -2 38 1 -19 8 -110 105 -110
117 0 10 18 -2 69 -47 l35 -31 -37 44 c-20 24 -34 47 -32 51 3 4 -5 16 -17 26
-27 25 -55 88 -62 144 -3 25 -3 38 0 30 17 -41 67 -140 70 -140 2 0 2 19 -1
43 -4 32 -3 36 4 17 9 -25 9 -25 10 5 1 17 4 48 8 70 l7 40 27 -60 28 -60 0
55 c0 30 -3 85 -8 123 -9 83 2 75 23 -18 9 -41 13 -52 10 -26 l-5 43 32 -4
c20 -3 33 0 36 9 3 7 11 13 18 13 7 0 23 9 36 19 l24 20 -50 -4 c-70 -6 -133
20 -144 60 -10 37 -10 38 23 25 15 -5 44 -10 64 -9 l37 0 -36 14 c-101 37
-143 86 -191 225 l-19 55 32 27 33 28 -31 -12 c-18 -7 -30 -16 -27 -20 3 -4 1
-8 -4 -8 -4 0 -19 14 -31 31 -19 25 -21 33 -10 40 11 6 9 9 -7 9 -12 0 -32 14
-47 33 -28 37 -173 180 -187 185 -5 2 -3 -15 5 -37 13 -38 13 -41 -3 -41 -9 0
-37 9 -62 20 -31 14 -39 15 -25 4 19 -15 19 -15 -6 -12 -15 2 -33 8 -40 14 -8
6 -33 16 -56 23 -24 6 -47 21 -53 31 -14 26 1 26 23 0 10 -12 29 -20 49 -20
17 0 29 1 27 3 -2 2 -35 27 -74 57 -38 30 -60 43 -47 29 12 -14 22 -29 22 -35
0 -5 -4 -5 -8 1 -4 6 -24 23 -45 38 -20 16 -35 32 -32 37 3 5 0 12 -6 16 -8 4
-9 3 -5 -4 9 -16 -7 -15 -22 0 -9 9 -12 7 -12 -10z m488 -278 c7 -27 14 -59
15 -71 1 -11 6 -19 11 -15 5 3 6 -2 3 -12 -4 -11 -3 -15 4 -10 6 4 9 20 5 38
-4 22 -3 27 4 15 5 -9 8 -35 6 -57 -4 -31 1 -48 19 -72 13 -17 25 -27 27 -23
3 4 3 2 1 -5 -1 -7 4 -26 12 -42 28 -55 15 -45 -19 14 -34 59 -64 85 -101 86
-31 0 -123 57 -171 106 -48 47 -55 65 -25 59 15 -3 19 1 16 17 -6 28 -15 36
-15 12 0 -16 -2 -16 -10 -4 -5 9 -5 19 0 24 11 11 43 -1 36 -13 -4 -5 -1 -11
6 -13 7 -3 9 -12 5 -22 -4 -11 -13 -16 -22 -12 -18 6 -20 -5 -3 -22 9 -9 14
-7 23 5 11 15 12 14 10 -9 -3 -22 6 -32 48 -61 50 -33 105 -57 134 -57 11 0
11 6 -2 30 -9 18 -21 28 -27 24 -7 -5 -8 -3 -3 5 4 8 -2 25 -14 42 -12 16 -19
35 -15 42 4 6 4 9 -1 5 -4 -4 -28 10 -52 33 -32 29 -49 38 -63 34 -15 -5 -20
-2 -20 12 0 10 4 14 8 8 4 -6 25 -10 47 -10 36 0 40 2 39 25 -1 23 1 21 35
-16 21 -24 42 -62 49 -90z m-338 82 c0 -3 -4 -8 -10 -11 -5 -3 -10 -1 -10 4 0
6 5 11 10 11 6 0 10 -2 10 -4z m240 -57 c77 -83 95 -111 53 -81 -17 12 -34 22
-38 22 -30 0 -90 72 -78 93 9 15 27 6 63 -34z m-214 -67 c-17 -16 -18 -16 -5
5 7 12 15 20 18 17 3 -2 -3 -12 -13 -22z m428 -56 c33 -50 86 -189 86 -225 -1
-35 -28 20 -28 56 0 19 -4 38 -9 42 -9 6 -39 72 -37 81 1 3 -9 16 -23 30 l-24
25 6 -45 c4 -35 3 -40 -4 -23 -6 13 -13 46 -17 74 -8 63 0 60 50 -15z m-448
27 c-10 -11 -37 -12 -30 -2 3 5 12 9 21 9 9 0 13 -3 9 -7z m97 -113 l42 -1
-29 -16 c-32 -17 -100 -13 -120 7 -8 9 -4 10 19 5 29 -7 29 -7 10 9 -19 15
-19 16 8 6 16 -5 47 -10 70 -10z m426 -270 c11 -24 11 -24 -3 -6 -9 11 -16 24
-16 30 0 12 5 7 19 -24z m-202 -156 c-3 -3 -12 -4 -19 -1 -8 3 -5 6 6 6 11 1
17 -2 13 -5z m-287 -74 c6 -11 7 -20 2 -20 -5 0 -17 9 -27 20 -16 18 -16 20
-2 20 9 0 21 -9 27 -20z m-50 -99 c0 -4 -14 -8 -31 -9 -17 -1 -28 2 -25 7 6
10 56 12 56 2z m440 -362 c0 -11 -3 -11 -24 -3 -23 9 -20 23 4 17 11 -3 20 -9
20 -14z m40 -33 c0 -23 -16 -27 -17 -5 -1 10 2 19 8 19 5 0 9 -6 9 -14z m-108
-79 c-7 -8 -10 -16 -7 -19 3 -3 -3 -11 -12 -19 -16 -12 -17 -12 -6 2 7 9 10
19 6 22 -3 4 0 13 7 22 7 9 15 13 18 10 3 -2 0 -11 -6 -18z m217 -26 c11 -7 5
-16 -27 -38 -23 -15 -41 -31 -42 -35 0 -5 17 -8 38 -8 37 -1 37 -1 12 -15 -22
-12 -27 -11 -42 2 -23 20 -22 24 3 67 22 37 33 42 58 27z m-543 -149 c-17 -16
-18 -16 -5 5 7 12 15 20 18 17 3 -2 -3 -12 -13 -22z m538 7 c-3 -5 0 -9 5 -9
6 0 11 -5 11 -12 0 -6 -9 -3 -20 7 -24 21 -26 37 -5 29 8 -4 12 -10 9 -15z
m-594 -119 c0 -5 -5 -10 -11 -10 -5 0 -7 5 -4 10 3 6 8 10 11 10 2 0 4 -4 4
-10z m558 -18 l23 -18 -41 -27 c-22 -14 -37 -21 -33 -14 4 7 6 22 4 34 -3 24
5 43 17 43 4 0 17 -8 30 -18z m250 -52 c1 -33 -3 -40 -19 -40 -13 0 -19 7 -19
22 0 21 0 21 14 2 14 -18 15 -18 12 -1 -1 10 -9 22 -16 27 -11 7 -11 11 -1 24
19 23 29 12 29 -34z m-760 15 c0 -14 -4 -27 -7 -30 -6 -3 -7 43 -2 53 4 9 9
-2 9 -23z m245 -88 c-13 -44 -23 -88 -23 -98 0 -31 -36 -22 -67 16 -15 19 -33
35 -38 35 -6 0 -19 -29 -29 -65 -15 -53 -24 -68 -51 -84 -24 -14 -36 -16 -44
-8 -21 21 -11 42 49 107 33 36 81 90 106 120 40 48 50 55 83 55 l37 1 -23 -79z
m-343 -77 c11 -23 17 -46 13 -53 -4 -7 1 -6 13 3 10 8 4 -2 -14 -22 -27 -28
-32 -41 -27 -59 7 -20 6 -22 -7 -11 -12 10 -20 8 -44 -9 -22 -16 -21 -14 5 9
34 31 37 53 12 92 -9 12 -13 11 -33 -6 -13 -12 -30 -25 -38 -29 -13 -8 -13 -7
0 10 13 17 13 18 -1 13 -10 -4 -16 -1 -16 8 0 8 3 12 5 9 3 -3 18 7 34 22 15
15 28 21 28 15 0 -7 -9 -17 -20 -24 -11 -7 -20 -17 -20 -22 0 -5 8 -2 18 7 10
10 23 17 28 17 6 0 16 16 24 35 8 19 15 35 17 35 1 0 12 -18 23 -40z m220 -71
c0 -6 -4 -7 -10 -4 -5 3 -10 11 -10 16 0 6 5 7 10 4 6 -3 10 -11 10 -16z m-10
-29 c0 -5 -5 -10 -11 -10 -5 0 -7 5 -4 10 3 6 8 10 11 10 2 0 4 -4 4 -10z
m930 -16 c0 -2 -9 0 -20 6 -11 6 -20 13 -20 16 0 2 9 0 20 -6 11 -6 20 -13 20
-16z m-1091 -1 c-16 -21 -50 -53 -56 -53 -8 0 28 59 39 63 25 10 30 7 17 -10z"/>
<path d="M1010 164 c0 -11 7 -29 16 -40 15 -18 15 -18 9 11 -8 37 -25 57 -25
29z"/>
<path d="M968 2040 c-14 -10 -29 -16 -33 -12 -5 4 -5 1 -1 -5 5 -10 15 -7 37
9 27 20 34 28 25 28 -2 0 -15 -9 -28 -20z"/>
<path d="M820 2040 c-8 -5 -10 -10 -5 -10 6 0 17 5 25 10 8 5 11 10 5 10 -5 0
-17 -5 -25 -10z"/>
<path d="M738 2007 c15 -7 26 -7 33 0 6 6 -1 10 -23 10 -30 0 -30 -1 -10 -10z"/>
<path d="M577 1952 c17 -17 29 -33 26 -36 -4 -3 -1 -6 5 -6 6 0 14 5 17 10 3
6 2 10 -4 10 -5 0 -24 12 -43 26 l-33 26 32 -30z"/>
<path d="M549 1873 c-57 -62 -83 -93 -78 -93 3 0 31 29 63 65 62 70 72 89 15
28z"/>
<path d="M1608 1893 c7 -3 16 -2 19 1 4 3 -2 6 -13 5 -11 0 -14 -3 -6 -6z"/>
<path d="M283 1819 c-2 -23 3 -25 10 -4 4 8 3 16 -1 19 -4 3 -9 -4 -9 -15z"/>
<path d="M327 1789 c7 -7 15 -10 18 -7 3 3 -2 9 -12 12 -14 6 -15 5 -6 -5z"/>
<path d="M290 1777 c-1 -21 44 -89 75 -114 33 -26 34 -28 17 -48 -10 -12 -6
-11 11 5 23 20 25 26 13 28 -9 2 -14 8 -11 13 3 5 0 6 -7 4 -17 -7 -49 27 -76
80 -12 22 -21 36 -22 32z"/>
<path d="M179 1556 c13 -16 51 -41 51 -33 0 2 -15 14 -32 27 -21 15 -28 17
-19 6z"/>
<path d="M275 1501 c11 -5 28 -12 38 -15 13 -4 16 -12 12 -25 -13 -42 -25
-139 -24 -196 2 -50 3 -44 10 37 9 111 25 178 42 179 13 1 -22 12 -68 22 -22
5 -25 4 -10 -2z"/>
<path d="M411 1494 c0 -11 3 -14 6 -6 3 7 2 16 -1 19 -3 4 -6 -2 -5 -13z"/>
<path d="M1760 1496 c0 -2 8 -10 18 -17 15 -13 16 -12 3 4 -13 16 -21 21 -21
13z"/>
<path d="M885 1450 c85 -35 174 -44 246 -25 79 20 84 25 25 25 -26 0 -45 4
-41 9 3 6 -10 5 -32 -1 -37 -10 -176 -6 -223 6 -14 4 -2 -2 25 -14z m148 -17
c-7 -2 -19 -2 -25 0 -7 3 -2 5 12 5 14 0 19 -2 13 -5z m50 0 c-7 -2 -19 -2
-25 0 -7 3 -2 5 12 5 14 0 19 -2 13 -5z"/>
<path d="M1807 1459 c7 -7 15 -10 18 -7 3 3 -2 9 -12 12 -14 6 -15 5 -6 -5z"/>
<path d="M342 1400 c0 -19 2 -27 5 -17 2 9 2 25 0 35 -3 9 -5 1 -5 -18z"/>
<path d="M392 1390 c0 -14 2 -19 5 -12 2 6 2 18 0 25 -3 6 -5 1 -5 -13z"/>
<path d="M1878 1383 c7 -3 16 -2 19 1 4 3 -2 6 -13 5 -11 0 -14 -3 -6 -6z"/>
<path d="M541 1364 c0 -11 3 -14 6 -6 3 7 2 16 -1 19 -3 4 -6 -2 -5 -13z"/>
<path d="M846 1357 c3 -10 9 -15 12 -12 3 3 0 11 -7 18 -10 9 -11 8 -5 -6z"/>
<path d="M338 1335 c-19 -55 -27 -172 -14 -214 10 -35 14 -40 20 -25 4 11 3
20 -3 22 -7 2 -11 35 -10 80 1 63 2 72 10 47 23 -74 16 -197 -10 -181 -5 3
-16 -5 -25 -19 -21 -32 -20 -38 4 -25 12 6 17 17 14 28 -5 15 -4 15 6 -1 9
-14 6 -27 -14 -63 -14 -26 -24 -50 -21 -54 3 -5 0 -12 -6 -16 -8 -4 -9 -3 -5
4 10 17 1 15 -14 -3 -11 -14 -7 -15 34 -11 26 2 58 11 71 20 24 16 25 15 46
-26 18 -35 20 -48 11 -70 -9 -25 -8 -27 8 -18 17 9 19 4 25 -45 4 -30 5 -70 3
-90 -5 -48 11 -40 43 21 25 50 26 50 42 28 9 -13 31 -33 49 -45 l33 -23 -20
24 -20 23 23 -12 c12 -7 28 -9 34 -5 6 4 8 3 5 -3 -4 -6 7 -16 25 -22 l32 -11
-21 22 c-11 13 -33 42 -48 65 -15 24 -32 40 -38 36 -6 -3 -7 -1 -3 6 10 16 58
-19 85 -62 11 -17 35 -41 53 -51 30 -17 30 -16 -9 18 -29 25 -48 54 -63 94
-13 36 -39 75 -68 106 l-47 49 40 -29 40 -29 -33 40 -33 40 27 23 27 24 13
-38 c7 -20 23 -47 35 -58 l21 -21 -11 21 c-12 24 -6 35 15 27 8 -3 21 0 28 6
11 10 15 8 19 -6 4 -15 5 -15 6 3 0 11 -6 29 -14 40 -8 10 -15 28 -15 40 0 11
-10 29 -22 40 l-23 19 19 -22 19 -23 -60 0 c-55 0 -61 -2 -83 -32 l-25 -33 -6
30 c-5 23 -7 25 -8 8 -2 -36 -32 -103 -51 -113 -12 -6 -17 -5 -17 5 0 8 4 12
8 9 4 -2 6 21 5 53 -3 36 1 68 10 85 22 43 16 44 -12 2 -46 -68 -59 -83 -68
-84 -4 0 -6 9 -3 21 4 15 2 19 -10 15 -8 -3 -17 -6 -19 -6 -3 0 -3 -4 0 -9 4
-5 -4 -7 -16 -3 -21 5 -22 4 -9 -11 12 -15 11 -17 -2 -17 -20 0 -31 16 -17 25
6 4 8 11 5 16 -3 5 0 6 8 3 19 -7 33 14 18 29 -12 12 -15 41 -3 33 4 -2 7 19
6 46 -1 45 1 49 13 32 15 -21 17 -11 3 17 -8 13 -7 25 0 39 8 16 8 18 -4 14
-16 -6 -24 23 -28 106 -2 32 -5 39 -10 25z m22 -325 c0 -5 -2 -10 -4 -10 -3 0
-8 5 -11 10 -3 6 -1 10 4 10 6 0 11 -4 11 -10z m370 -39 c0 -6 -4 -13 -10 -16
-5 -3 -10 1 -10 9 0 9 5 16 10 16 6 0 10 -4 10 -9z m-400 -30 c0 -5 12 -7 27
-5 15 3 25 2 21 -1 -3 -4 -12 -7 -20 -9 -7 -1 -20 -6 -28 -10 -8 -5 -12 -6 -8
-1 4 4 3 14 -3 22 -9 9 -8 13 0 13 6 0 11 -4 11 -9z m117 -40 c0 -11 -5 -18
-9 -15 -4 3 -5 11 -1 19 7 21 12 19 10 -4z"/>
<path d="M545 1326 c-5 -11 -3 -21 5 -26 11 -7 11 -17 2 -52 -8 -29 -10 -33
-7 -10 3 18 1 31 -4 28 -4 -3 -11 -32 -14 -64 -4 -32 -10 -67 -14 -77 -6 -17
-5 -18 8 -5 9 8 14 24 11 37 -2 13 1 23 7 23 7 0 9 -25 6 -77 -3 -67 -3 -71 5
-28 4 28 9 76 9 107 1 31 5 58 11 60 6 2 4 22 -4 53 -11 39 -15 46 -21 31z"/>
<path d="M1268 1333 c6 -2 18 -2 25 0 6 3 1 5 -13 5 -14 0 -19 -2 -12 -5z"/>
<path d="M852 1310 c0 -14 2 -19 5 -12 2 6 2 18 0 25 -3 6 -5 1 -5 -13z"/>
<path d="M880 1310 c6 -11 13 -20 16 -20 2 0 0 9 -6 20 -6 11 -13 20 -16 20
-2 0 0 -9 6 -20z"/>
<path d="M954 1283 c18 -35 32 -48 40 -35 3 5 -9 22 -26 38 l-30 29 16 -32z"/>
<path d="M862 1260 c0 -14 2 -19 5 -12 2 6 2 18 0 25 -3 6 -5 1 -5 -13z"/>
<path d="M900 1276 c0 -2 8 -10 18 -17 15 -13 16 -12 3 4 -13 16 -21 21 -21
13z"/>
<path d="M1803 1210 c0 -25 2 -35 4 -22 2 12 2 32 0 45 -2 12 -4 2 -4 -23z"/>
<path d="M580 1224 c0 -6 7 -19 16 -30 14 -18 14 -18 3 6 -14 31 -19 36 -19
24z"/>
<path d="M2191 1208 c-64 -31 -113 -83 -159 -168 -71 -129 -133 -213 -174
-233 -21 -10 -38 -23 -38 -28 0 -6 -6 -7 -12 -4 -7 3 16 -21 52 -54 35 -33 67
-56 70 -51 3 5 11 5 19 0 8 -4 21 -6 30 -3 12 4 13 2 3 -4 -10 -7 -8 -14 8
-28 11 -10 20 -23 20 -28 0 -6 -8 -3 -18 6 -27 25 -72 39 -72 23 0 -24 51 -66
80 -66 15 0 33 -6 39 -14 10 -12 18 -11 52 7 21 11 39 25 39 30 0 6 -8 3 -18
-6 -25 -23 -32 -21 -32 7 0 28 25 54 33 34 4 -9 6 -8 6 3 1 9 -6 20 -15 23 -8
3 -13 2 -10 -3 3 -5 -3 -11 -14 -14 -13 -3 -18 -1 -14 5 5 7 -2 9 -19 6 -17
-3 -24 -1 -20 5 4 6 0 8 -10 4 -12 -4 -17 -1 -17 9 0 9 -9 18 -21 21 -15 4
-17 8 -8 14 7 4 28 1 46 -6 18 -8 33 -10 33 -6 0 4 11 13 25 19 16 8 25 20 25
35 0 29 19 47 88 81 55 28 62 25 36 -12 -18 -26 -13 -38 11 -29 13 5 15 31 15
163 l0 156 -52 -44 c-74 -62 -87 -69 -64 -33 31 49 79 109 98 123 18 13 26 82
11 82 -5 0 -28 -10 -52 -22z m-220 -615 c13 -16 12 -17 -3 -4 -10 7 -18 15
-18 17 0 8 8 3 21 -13z"/>
<path d="M825 1200 c10 -11 20 -20 23 -20 3 0 -3 9 -13 20 -10 11 -20 20 -23
20 -3 0 3 -9 13 -20z"/>
<path d="M871 1177 c0 -10 -6 -15 -12 -12 -6 4 -5 -3 3 -14 10 -17 14 -18 16
-6 2 8 1 23 -1 33 -4 16 -5 16 -6 -1z"/>
<path d="M736 1152 c81 -64 100 -77 111 -76 7 1 11 -2 8 -6 -3 -5 5 -19 17
-32 13 -13 20 -19 16 -14 -5 6 -8 22 -8 38 0 25 -9 31 -82 67 -46 22 -74 32
-62 23z"/>
<path d="M1780 1151 c0 -11 4 -22 9 -25 4 -3 6 6 3 19 -5 30 -12 33 -12 6z"/>
<path d="M1705 1120 c10 -11 20 -20 23 -20 3 0 -3 9 -13 20 -10 11 -20 20 -23
20 -3 0 3 -9 13 -20z"/>
<path d="M899 1107 c6 -8 7 -18 3 -22 -4 -5 -1 -5 6 -1 10 6 10 11 1 22 -6 8
-14 14 -16 14 -3 0 0 -6 6 -13z"/>
<path d="M1213 1035 c0 -38 2 -53 4 -32 2 20 2 52 0 70 -2 17 -4 1 -4 -38z"/>
<path d="M421 1072 c-1 -20 -28 -45 -33 -30 -3 8 -6 9 -11 1 -3 -5 5 -15 18
-21 14 -6 24 -8 23 -4 0 4 2 15 6 24 4 10 6 23 3 30 -4 10 -6 10 -6 0z"/>
<path d="M754 1031 c-9 -34 -8 -40 10 -51 16 -9 18 -9 10 0 -7 7 -10 28 -7 51
7 50 0 50 -13 0z"/>
<path d="M810 975 c35 -36 56 -49 27 -17 -10 10 -14 22 -10 27 5 4 3 5 -3 2
-7 -4 -14 0 -18 8 -3 8 -11 15 -18 15 -6 0 3 -16 22 -35z"/>
<path d="M875 970 c-3 -5 -1 -10 4 -10 6 0 11 5 11 10 0 6 -2 10 -4 10 -3 0
-8 -4 -11 -10z"/>
<path d="M923 953 c9 -2 23 -2 30 0 6 3 -1 5 -18 5 -16 0 -22 -2 -12 -5z"/>
<path d="M1620 850 c6 -11 13 -20 16 -20 2 0 0 9 -6 20 -6 11 -13 20 -16 20
-2 0 0 -9 6 -20z"/>
<path d="M0 769 c0 -94 -5 -85 95 -169 l29 -25 -28 38 -28 37 35 0 c22 0 39
-7 48 -19 8 -10 27 -22 42 -25 25 -6 27 -5 18 11 -16 29 -62 77 -119 123 -29
23 -61 59 -72 79 l-19 36 -1 -86z"/>
<path d="M1775 810 c10 -11 20 -20 23 -20 3 0 -3 9 -13 20 -10 11 -20 20 -23
20 -3 0 3 -9 13 -20z"/>
<path d="M1660 795 c13 -14 26 -25 28 -25 3 0 -5 11 -18 25 -13 14 -26 25 -28
25 -3 0 5 -11 18 -25z"/>
<path d="M2222 610 c-13 -11 -29 -17 -36 -14 -6 2 -27 -13 -45 -36 -17 -22
-27 -40 -21 -40 6 0 8 -4 5 -10 -3 -5 0 -10 8 -10 8 0 17 -10 21 -23 3 -13 16
-39 29 -58 12 -19 28 -54 36 -78 22 -76 32 -33 29 131 l-3 156 -23 -18z"/>
<path d="M938 593 c6 -2 18 -2 25 0 6 3 1 5 -13 5 -14 0 -19 -2 -12 -5z"/>
<path d="M101 548 c13 -24 107 -98 124 -98 8 0 17 5 20 10 3 6 12 10 18 10 9
0 9 -2 0 -8 -8 -5 2 -8 25 -9 l37 -1 -55 24 c-30 13 -61 23 -68 24 -8 0 -27
14 -44 32 -34 36 -74 47 -57 16z"/>
<path d="M0 446 l0 -114 51 -11 c36 -8 56 -8 70 0 11 6 27 8 36 5 9 -4 29 6
49 24 19 16 39 30 44 30 23 0 7 31 -22 43 -18 8 -75 42 -125 76 -51 33 -95 61
-98 61 -3 0 -5 -51 -5 -114z"/>
<path d="M679 513 c-13 -16 -12 -17 4 -4 16 13 21 21 13 21 -2 0 -10 -8 -17
-17z"/>
<path d="M2010 526 c0 -9 30 -14 35 -6 4 6 -3 10 -14 10 -12 0 -21 -2 -21 -4z"/>
<path d="M2052 504 c-13 -9 -29 -13 -37 -10 -12 4 -12 1 1 -19 9 -14 20 -25
26 -25 5 0 8 -6 6 -14 -2 -8 -1 -14 2 -14 14 3 50 -25 44 -34 -4 -6 -3 -8 3
-5 17 11 40 -25 56 -85 13 -48 77 -158 93 -158 7 0 -4 17 -43 68 -34 45 -43
82 -20 82 8 0 19 -12 26 -27 8 -18 15 -23 23 -15 7 7 3 19 -12 40 -13 18 -19
35 -15 43 5 7 4 10 -3 5 -11 -7 -28 31 -18 41 10 10 -35 80 -60 94 -13 7 -22
15 -19 17 6 6 -14 32 -24 32 -4 0 -17 -7 -29 -16z m43 -4 c3 -6 -5 -10 -19
-10 -14 0 -30 -8 -35 -17 -6 -10 -11 -13 -11 -6 0 12 37 43 52 43 4 0 10 -4
13 -10z"/>
<path d="M330 475 c25 -26 41 -35 21 -11 -7 8 -8 16 -4 18 4 3 2 3 -4 2 -7 -2
-13 1 -13 6 0 6 -5 10 -12 10 -6 0 -1 -11 12 -25z"/>
<path d="M586 475 c20 -31 25 -31 55 2 l24 27 -30 -23 -30 -22 -9 20 c-5 12
-13 21 -18 21 -5 0 -1 -11 8 -25z"/>
<path d="M721 474 c0 -11 3 -14 6 -6 3 7 2 16 -1 19 -3 4 -6 -2 -5 -13z"/>
<path d="M650 446 c0 -2 7 -7 16 -10 8 -3 12 -2 9 4 -6 10 -25 14 -25 6z"/>
<path d="M710 438 c0 -9 -6 -19 -12 -21 -10 -4 -10 -6 0 -6 14 -1 28 26 18 36
-3 4 -6 -1 -6 -9z"/>
<path d="M520 395 c0 -8 4 -15 10 -15 5 0 7 7 4 15 -4 8 -8 15 -10 15 -2 0 -4
-7 -4 -15z"/>
<path d="M640 336 c0 -14 5 -26 10 -26 6 0 10 9 10 19 0 11 -4 23 -10 26 -6 4
-10 -5 -10 -19z"/>
<path d="M516 341 c-6 -9 -21 -12 -47 -8 -33 4 -45 0 -78 -26 -45 -37 -228
-305 -193 -283 6 3 17 -1 25 -9 25 -25 54 -18 76 19 34 54 45 60 80 41 34 -17
37 -25 19 -44 -11 -10 -8 -10 15 -2 45 17 85 40 94 53 4 7 28 31 53 52 25 22
55 53 68 70 l22 30 -21 8 c-11 5 -25 5 -31 2 -15 -10 1 39 17 50 10 8 7 13
-12 23 -14 7 -36 13 -48 13 -13 0 -25 5 -27 12 -3 9 -6 9 -12 -1z m-72 -190
c6 -9 -20 -35 -45 -44 -18 -6 -22 20 -6 41 11 14 43 16 51 3z m-217 -113 c-3
-7 -5 -2 -5 12 0 14 2 19 5 13 2 -7 2 -19 0 -25z"/>
<path d="M728 233 c-9 -10 -21 -29 -28 -43 -7 -14 -8 -20 -4 -15 5 6 22 25 38
43 17 17 25 32 19 32 -5 0 -17 -8 -25 -17z"/>
<path d="M1706 180 c7 -38 18 -55 37 -55 7 0 13 -15 15 -33 3 -28 8 -34 34
-39 27 -5 29 -8 15 -18 -9 -7 -13 -16 -9 -20 4 -5 1 -5 -5 -1 -7 4 -13 2 -13
-3 0 -7 31 -11 81 -11 l81 0 -24 29 c-28 36 -44 44 -67 32 -14 -8 -17 -6 -17
12 1 15 -6 23 -21 25 -12 2 -34 15 -50 30 -15 15 -32 25 -36 24 -5 -1 -6 2 -2
8 3 5 -1 20 -10 32 -15 22 -15 22 -9 -12z"/>
<path d="M1880 96 c0 -2 7 -9 15 -16 13 -11 14 -10 9 4 -5 14 -24 23 -24 12z"/>
<path d="M625 29 c-79 -18 -87 -20 -84 -24 2 -2 42 5 89 15 47 10 74 18 60 18
-14 0 -43 -4 -65 -9z"/>
<path d="M1759 38 c-6 -21 -5 -38 2 -38 5 0 9 2 9 4 0 2 3 11 6 20 3 9 1 16
-5 16 -6 0 -11 -1 -12 -2z"/>
</g>
</svg>
